<?xml version="1.0" standalone="no"?>
<!DOCTYPE svg PUBLIC "-//W3C//DTD SVG 20010904//EN"
 "http://www.w3.org/TR/2001/REC-SVG-20010904/DTD/svg10.dtd">
<svg version="1.0" xmlns="http://www.w3.org/2000/svg"
 width="300.000000pt" height="300.000000pt" viewBox="0 0 300.000000 300.000000"
 preserveAspectRatio="xMidYMid meet">

<g transform="translate(0.000000,300.000000) scale(0.100000,-0.100000)"
fill="#000000" stroke="none">
<path d="M1424 2861 c9 -16 25 -36 37 -44 18 -13 16 -14 -28 -10 -26 2 -61 9
-76 13 -16 5 -25 5 -22 0 3 -5 -3 -10 -12 -12 -31 -7 -84 9 -109 33 l-24 22 0
-21 c0 -12 13 -35 28 -50 16 -15 26 -26 24 -25 -6 2 -76 -28 -91 -40 -7 -6
-34 -18 -59 -27 -32 -10 -53 -25 -67 -47 -26 -41 -84 -67 -121 -53 -33 13 -46
3 -21 -15 13 -10 15 -14 5 -18 -7 -3 1 -6 17 -7 l30 -1 -28 -24 c-30 -27 -84
-34 -105 -13 -9 9 -12 8 -12 -4 0 -20 37 -48 63 -48 17 0 17 -2 -4 -20 -17
-14 -19 -18 -6 -14 26 9 21 -4 -23 -53 -42 -48 -51 -69 -24 -59 17 6 12 -6
-15 -38 -15 -18 -15 -18 6 -7 33 17 41 13 14 -9 -30 -26 -71 -25 -100 1 l-22
21 3 -31 c3 -22 18 -45 52 -77 l49 -45 -19 -34 c-11 -21 -27 -35 -39 -36 -17
-1 -17 -2 -2 -6 12 -3 17 -15 17 -43 0 -21 4 -41 8 -44 5 -3 6 8 4 25 -6 39 5
37 17 -3 l9 -33 2 45 2 45 16 -63 c12 -50 13 -68 4 -83 -14 -23 -15 -32 -3
-24 9 5 8 -20 -5 -99 -4 -28 -3 -29 15 -12 18 16 19 16 23 -15 3 -17 -2 -50
-10 -73 -19 -54 -9 -155 23 -221 44 -93 87 -149 125 -159 43 -12 46 -16 53
-77 8 -65 37 -127 81 -176 40 -45 43 -65 30 -251 l-7 -91 -56 -12 c-62 -13
-118 -38 -170 -77 -35 -26 -180 -92 -345 -157 l-99 -39 62 -57 c128 -118 332
-234 515 -294 162 -53 278 -70 466 -70 189 0 304 17 468 71 185 60 383 173
515 294 64 59 79 80 57 80 -21 0 -279 116 -345 155 -109 66 -136 78 -195 90
-53 11 -55 13 -62 51 -4 21 -7 90 -7 152 l-1 114 34 41 c47 58 63 93 78 171
14 66 15 69 53 82 44 15 47 19 105 114 45 74 65 159 55 228 -9 63 -14 71 -49
88 l-31 14 32 -5 c30 -4 33 -2 39 30 5 31 9 34 30 29 28 -7 41 -8 69 -5 14 2
10 5 -15 14 -37 13 -67 55 -80 112 -10 42 -5 44 14 8 13 -26 14 -20 12 79 -1
58 2 104 6 101 5 -2 6 -8 3 -13 -3 -4 -1 -19 4 -32 9 -22 10 -22 11 7 0 23 3
27 10 15 5 -8 10 -28 10 -45 l1 -30 10 25 c19 45 5 126 -34 200 -20 39 -34 70
-31 70 3 0 17 -12 31 -27 l27 -28 -22 36 c-27 44 -27 49 -4 49 17 0 52 28 52
41 0 3 -16 3 -36 1 -33 -4 -40 0 -81 47 -38 43 -55 54 -104 68 -48 13 -59 20
-59 37 0 12 -5 28 -10 36 -8 12 -10 10 -10 -10 l-1 -25 -10 25 c-6 13 -17 33
-26 42 -15 17 -13 18 30 18 35 0 52 -6 74 -26 l28 -25 -25 6 c-23 5 -23 5 -5
-6 11 -6 26 -19 34 -28 12 -14 13 -12 7 14 -11 51 -86 95 -160 95 -14 0 -26 5
-26 10 0 6 -3 9 -7 8 -5 -1 -22 6 -40 15 -18 9 -39 17 -47 17 -8 0 -34 20 -57
45 -64 69 -115 88 -241 95 -91 5 -112 9 -138 29 l-31 23 15 -31z m289 -54 c18
-8 39 -22 47 -33 14 -18 14 -18 -5 -2 -21 17 -78 35 -130 41 -22 3 -18 4 13 6
23 0 57 -5 75 -12z m-523 -81 c0 -2 -7 -7 -16 -10 -8 -3 -12 -2 -9 4 6 10 25
14 25 6z m-70 -31 c0 -8 -82 -47 -87 -41 -3 2 12 14 34 25 39 20 53 25 53 16z
m499 -79 c8 -10 9 -16 1 -21 -13 -8 -30 3 -30 21 0 18 14 18 29 0z m605 -185
c34 -37 12 -30 -34 11 -37 34 -40 38 -15 25 17 -8 39 -24 49 -36z m-292 -203
c23 -18 35 -34 33 -45 -2 -10 -11 -72 -21 -138 l-16 -120 -137 -1 c-89 0 -144
-4 -159 -13 -28 -15 -43 -50 -30 -71 7 -10 6 -30 -1 -56 -10 -38 -12 -40 -46
-36 -27 3 -35 1 -35 -12 0 -9 -4 -16 -10 -16 -5 0 -10 5 -10 11 0 6 -9 9 -19
6 -16 -4 -20 2 -23 40 -2 24 0 53 5 65 22 62 -27 83 -189 82 -108 0 -125 -3
-164 -25 -45 -25 -74 -58 -85 -97 -7 -23 -7 -23 19 -7 16 11 52 19 94 21 l67
3 -53 -9 c-29 -6 -75 -21 -102 -35 -27 -14 -54 -25 -60 -25 -17 0 -11 52 15
140 15 50 25 108 25 146 0 70 11 108 42 142 28 29 35 28 30 -7 -7 -52 44 -161
69 -145 5 3 21 -4 35 -15 15 -12 38 -21 53 -21 18 0 22 3 12 9 -11 7 -11 9 0
14 8 3 5 6 -8 6 -71 3 -49 162 30 212 42 27 146 21 200 -11 32 -19 42 -20 65
-11 15 6 36 14 47 16 113 28 150 34 216 32 65 -2 81 -6 111 -29z m-716 -60
c-13 -37 -15 -39 -16 -15 0 29 18 73 27 64 2 -3 -2 -25 -11 -49z m-419 -4 c-3
-3 -12 -4 -19 -1 -8 3 -5 6 6 6 11 1 17 -2 13 -5z m369 -131 c-5 -5 -36 50
-36 64 0 4 9 -7 21 -26 11 -18 18 -35 15 -38z m621 -219 c-3 -3 -12 -4 -19 -1
-8 3 -5 6 6 6 11 1 17 -2 13 -5z m-562 -54 c-11 -5 -27 -9 -35 -9 -9 0 -8 4 5
9 11 5 27 9 35 9 9 0 8 -4 -5 -9z m-325 -28 c0 -10 5 -23 11 -29 7 -7 8 -17 2
-27 -8 -15 -11 -15 -28 4 -10 11 -24 20 -32 20 -16 0 -16 5 -3 31 14 24 50 25
50 1z m184 -19 c6 -23 1 -81 -7 -89 -4 -4 -13 -1 -22 6 -15 13 -20 56 -9 84 8
21 31 20 38 -1z m171 -3 c-3 -5 -10 -10 -16 -10 -5 0 -9 5 -9 10 0 6 7 10 16
10 8 0 12 -4 9 -10z m530 0 c-3 -5 -11 -10 -16 -10 -6 0 -7 5 -4 10 3 6 11 10
16 10 6 0 7 -4 4 -10z m-585 -27 c0 -79 106 -86 134 -9 6 19 7 19 21 0 8 -10
15 -27 15 -36 0 -28 20 -21 20 7 0 21 3 23 23 16 18 -7 21 -15 19 -42 -5 -48
-46 -113 -86 -138 -100 -62 -266 -13 -266 78 0 41 20 83 34 72 12 -9 98 -31
118 -30 7 0 -8 7 -33 15 -65 20 -74 34 -43 67 31 34 44 34 44 0z m700 -4 c9
-15 8 -24 -1 -35 -6 -8 -8 -14 -3 -14 20 0 -23 -20 -46 -21 -18 -1 -20 -3 -7
-6 14 -4 16 -8 6 -19 -20 -24 30 -17 80 11 54 31 85 33 77 5 -3 -11 -9 -30
-12 -42 -8 -29 -51 -76 -84 -92 -60 -30 -177 -8 -202 37 -17 33 -37 117 -27
117 5 0 9 6 9 13 0 7 7 23 16 36 l17 23 13 -30 c24 -59 111 -55 129 6 11 37
20 40 35 11z m-321 -3 c8 -9 11 -59 9 -152 l-3 -139 -28 -9 c-18 -7 -41 -6
-69 1 -46 12 -98 0 -98 -22 0 -31 143 -105 202 -105 25 0 46 8 67 26 26 21 31
33 30 67 0 38 -17 99 -18 70 -1 -7 -5 -13 -10 -13 -11 0 -23 44 -13 48 5 1 6
17 4 35 l-5 32 42 -37 c40 -37 51 -42 80 -39 7 2 10 -2 7 -7 -7 -12 41 -22
105 -22 l48 0 -15 -27 c-8 -16 -23 -49 -33 -74 -18 -43 -20 -45 -54 -41 -27 3
-38 -1 -50 -18 -20 -29 -74 -39 -212 -39 -192 -1 -325 22 -325 56 0 11 -4 11
-21 3 -19 -10 -14 -14 48 -45 75 -38 161 -54 288 -55 75 -1 79 -2 60 -16 -19
-15 -17 -16 23 -10 43 6 61 15 167 76 28 16 54 30 59 30 30 1 -41 -141 -143
-287 -58 -82 -89 -100 -189 -109 -100 -10 -143 9 -224 95 -124 132 -198 221
-198 237 0 4 -11 20 -25 34 -13 14 -26 34 -28 45 -1 11 -6 25 -10 31 -4 7 -14
43 -22 80 -8 38 -22 94 -30 124 -19 68 -20 163 -2 158 6 -3 19 -29 27 -58 17
-67 88 -146 139 -156 23 -5 29 -9 19 -16 -9 -6 -5 -7 12 -4 55 11 125 15 100
6 -18 -5 -20 -8 -7 -9 27 -2 89 27 83 38 -4 5 -1 13 5 17 8 4 9 3 5 -4 -4 -7
-3 -12 2 -12 19 0 69 89 87 152 9 35 22 66 29 70 19 13 73 9 85 -6z m-676
-119 c-26 -15 -29 -23 -25 -62 3 -23 14 -43 34 -60 26 -22 38 -27 66 -24 8 0
20 -36 21 -68 1 -13 -5 -23 -13 -23 -24 0 -66 41 -66 65 0 12 -7 28 -16 36
-39 32 -53 94 -37 169 l6 33 24 -28 c24 -27 24 -29 6 -38z m165 27 c4 -33 -11
-24 -23 15 -5 17 -4 22 6 19 8 -3 15 -18 17 -34z m-88 -141 c0 -13 -3 -13 -15
-3 -8 7 -15 19 -15 27 0 13 3 13 15 3 8 -7 15 -19 15 -27z m1000 27 c0 -17
-54 -38 -115 -44 l-60 -6 64 15 c35 8 73 21 85 29 26 18 26 18 26 6z m-635
-20 c-3 -5 -12 -10 -18 -10 -7 0 -6 4 3 10 19 12 23 12 15 0z m-84 -600 c38
-39 112 -98 168 -134 55 -36 110 -75 121 -86 l21 -21 -26 -31 c-21 -24 -25
-37 -19 -57 12 -44 7 -68 -27 -126 -19 -31 -42 -72 -51 -90 l-18 -34 -72 20
c-40 11 -99 34 -131 51 -80 43 -181 138 -202 190 l-17 43 49 42 c32 28 50 38
54 30 4 -7 4 -54 0 -105 -3 -51 -3 -99 1 -105 9 -14 10 -3 8 64 -1 25 5 83 14
130 8 46 20 130 26 187 7 57 17 102 23 102 6 0 41 -31 78 -70z m483 -428 c7
-15 17 -46 20 -68 l7 -42 -47 -16 c-64 -22 -88 -21 -79 2 4 9 15 40 25 69 35
100 47 108 74 55z"/>
<path d="M1206 2785 c4 -8 11 -15 16 -15 6 0 5 6 -2 15 -7 8 -14 15 -16 15 -2
0 -1 -7 2 -15z"/>
<path d="M2261 1784 c0 -11 3 -14 6 -6 3 7 2 16 -1 19 -3 4 -6 -2 -5 -13z"/>
</g>
</svg>
